<svg xmlns="http://www.w3.org/2000/svg" height="48" viewBox="0 96 960 960" width="48"><path d="M475.206 957q-146.459 0-252.333-97Q117 763 101 621q-4-17.125 9-30.562Q123 577 142.242 577 160 577 174 587t19 29q14 106 92.643 178t189.837 72q121.128 0 207.324-85.948Q769 694.104 769 571.179 769 451 682.127 368.5T475 286q-59.698 0-112.849 24T269 375h48q14.2 0 24.6 9.425 10.4 9.425 10.4 24.391 0 15.816-10.4 26T317 445H173q-19.025 0-31.512-13.2Q129 418.6 129 399V257q0-13.775 9.395-23.388Q147.79 224 161.482 224q14.118 0 24.318 9.612Q196 243.225 196 257v61q54-57 126.007-90.5Q394.013 194 475 194q79.337 0 149.019 30.3 69.681 30.3 121.996 81.418 52.316 51.118 82.65 119.903Q859 494.406 859 574.203t-30.335 149.379q-30.334 69.582-82.65 121.7Q693.7 897.4 624.04 927.2 554.38 957 475.206 957ZM517 563.259l107.802 103.568Q637 679 636.5 692.867 636 706.733 625.493 717q-11.597 12-24.791 12-13.195 0-24.702-12L462 605q-7-5.143-10-13.767-3-8.624-3-19.233V408q0-13.775 10.158-23.388 10.158-9.612 24-9.612T507 384.612q10 9.613 10 23.388v155.259Z"/></svg>